<svg width="28" height="28" viewBox="0 0 28 28" fill="none" xmlns="http://www.w3.org/2000/svg">
<path d="M12.5271 23.4671C12.1788 23.8083 11.7065 24 11.214 24C10.7216 24 10.2493 23.8083 9.90103 23.4671L1.54376 15.2759C1.19559 14.9346 1 14.4717 1 13.989C1 13.5063 1.19559 13.0434 1.54376 12.7021L9.90103 4.51097C10.2513 4.17939 10.7204 3.99592 11.2074 4.00007C11.6943 4.00422 12.1601 4.19565 12.5044 4.53314C12.8488 4.87063 13.0441 5.32717 13.0483 5.80443C13.0526 6.2817 12.8654 6.7415 12.5271 7.0848L7.4997 12.1688L25.1428 12.1688C25.6354 12.1688 26.1078 12.3605 26.456 12.7019C26.8043 13.0433 27 13.5063 27 13.989C27 14.4718 26.8043 14.9348 26.456 15.2761C26.1078 15.6175 25.6354 15.8093 25.1428 15.8093L7.4997 15.8093L12.5271 20.8932C12.8752 21.2346 13.0708 21.6975 13.0708 22.1801C13.0708 22.6628 12.8752 23.1257 12.5271 23.4671Z" fill="white"/>
</svg>
