<svg width="30" height="30" viewBox="0 0 30 30" fill="none" xmlns="http://www.w3.org/2000/svg">
<g clip-path="url(#clip0_82_46)">
<path fill-rule="evenodd" clip-rule="evenodd" d="M0 15C0 6.71575 6.71575 0 15 0C23.2842 0 30 6.71575 30 15C30 23.2842 23.2842 30 15 30C6.71575 30 0 23.2842 0 15ZM15.0007 7C12.8281 7 12.5554 7.0095 11.7021 7.04831C10.8504 7.08731 10.2691 7.22219 9.76038 7.42C9.23419 7.62431 8.78788 7.89769 8.34319 8.3425C7.89819 8.78719 7.62481 9.2335 7.41981 9.7595C7.2215 10.2684 7.0865 10.8499 7.04819 11.7012C7.01 12.5546 7 12.8274 7 15.0001C7 17.1727 7.00969 17.4446 7.04831 18.2979C7.0875 19.1496 7.22231 19.7309 7.42 20.2396C7.6245 20.7658 7.89781 21.2121 8.34269 21.6568C8.78719 22.1018 9.2335 22.3758 9.75937 22.5802C10.2684 22.778 10.8499 22.9128 11.7014 22.9518C12.5548 22.9907 12.8272 23.0002 14.9997 23.0002C17.1726 23.0002 17.4444 22.9907 18.2978 22.9518C19.1494 22.9128 19.7314 22.778 20.2405 22.5802C20.7665 22.3758 21.2121 22.1018 21.6566 21.6568C22.1016 21.2121 22.375 20.7658 22.58 20.2398C22.7767 19.7309 22.9117 19.1494 22.9517 18.2981C22.99 17.4448 23 17.1727 23 15.0001C23 12.8274 22.99 12.5548 22.9517 11.7014C22.9117 10.8497 22.7767 10.2684 22.58 9.75969C22.375 9.2335 22.1016 8.78719 21.6566 8.3425C21.2116 7.8975 20.7666 7.62419 20.24 7.42C19.7299 7.22219 19.1483 7.08731 18.2966 7.04831C17.4432 7.0095 17.1716 7 14.9983 7H15.0007Z" fill="white"/>
<path fill-rule="evenodd" clip-rule="evenodd" d="M14.2831 8.44145C14.4961 8.44114 14.7338 8.44145 15.0008 8.44145C17.1368 8.44145 17.3899 8.44914 18.2334 8.48745C19.0134 8.52314 19.4368 8.65345 19.7188 8.76295C20.0921 8.90795 20.3583 9.08127 20.6381 9.36127C20.9181 9.64127 21.0915 9.90795 21.2368 10.2813C21.3463 10.563 21.4768 10.9863 21.5123 11.7663C21.5506 12.6096 21.559 12.863 21.559 14.998C21.559 17.133 21.5506 17.3864 21.5123 18.2297C21.4766 19.0097 21.3463 19.4331 21.2368 19.7147C21.0918 20.0881 20.9181 20.3539 20.6381 20.6338C20.3581 20.9138 20.0923 21.0871 19.7188 21.2321C19.4371 21.3421 19.0134 21.4721 18.2334 21.5078C17.3901 21.5461 17.1368 21.5544 15.0008 21.5544C12.8646 21.5544 12.6114 21.5461 11.7681 21.5078C10.9881 21.4718 10.5647 21.3414 10.2826 21.2319C9.9092 21.0869 9.64251 20.9136 9.36251 20.6336C9.08251 20.3536 8.9092 20.0876 8.76388 19.7141C8.65438 19.4324 8.52388 19.0091 8.48838 18.2291C8.45001 17.3857 8.44238 17.1324 8.44238 14.996C8.44238 12.8596 8.45001 12.6076 8.48838 11.7643C8.52401 10.9843 8.65438 10.561 8.76388 10.279C8.90888 9.90564 9.08251 9.63895 9.36251 9.35895C9.64251 9.07895 9.9092 8.90564 10.2826 8.76027C10.5646 8.65027 10.9881 8.52027 11.7681 8.48445C12.5061 8.45114 12.7921 8.44114 14.2831 8.43945V8.44145ZM19.2711 9.76977C18.7411 9.76977 18.3111 10.1993 18.3111 10.7295C18.3111 11.2595 18.7411 11.6895 19.2711 11.6895C19.8011 11.6895 20.2311 11.2595 20.2311 10.7295C20.2311 10.1995 19.8011 9.76977 19.2711 9.76977ZM15.0008 10.8915C12.7319 10.8915 10.8924 12.731 10.8924 14.9998C10.8924 17.2687 12.7319 19.1074 15.0008 19.1074C17.2696 19.1074 19.1084 17.2687 19.1084 14.9998C19.1084 12.731 17.2696 10.8915 15.0008 10.8915Z" fill="white"/>
<path fill-rule="evenodd" clip-rule="evenodd" d="M15.0007 12.3335C16.4734 12.3335 17.6674 13.5274 17.6674 15.0002C17.6674 16.4729 16.4734 17.6669 15.0007 17.6669C13.5278 17.6669 12.334 16.4729 12.334 15.0002C12.334 13.5274 13.5278 12.3335 15.0007 12.3335Z" fill="white"/>
</g>
<defs>
<clipPath id="clip0_82_46">
<rect width="30" height="30" fill="white"/>
</clipPath>
</defs>
</svg>
