<svg width="40" height="31" viewBox="0 0 40 31" fill="none" xmlns="http://www.w3.org/2000/svg">
<path d="M0 2.19108C0 1.60997 0.210714 1.05266 0.585786 0.641753C0.960859 0.230846 1.46957 0 2 0H38C38.5304 0 39.0391 0.230846 39.4142 0.641753C39.7893 1.05266 40 1.60997 40 2.19108C40 2.77219 39.7893 3.3295 39.4142 3.74041C39.0391 4.15132 38.5304 4.38216 38 4.38216H2C1.46957 4.38216 0.960859 4.15132 0.585786 3.74041C0.210714 3.3295 0 2.77219 0 2.19108Z" fill="black"/>
<path d="M0 15.4076C0 14.8265 0.210714 14.2692 0.585786 13.8583C0.960859 13.4474 1.46957 13.2166 2 13.2166H38C38.5304 13.2166 39.0391 13.4474 39.4142 13.8583C39.7893 14.2692 40 14.8265 40 15.4076C40 15.9887 39.7893 16.5461 39.4142 16.957C39.0391 17.3679 38.5304 17.5987 38 17.5987H2C1.46957 17.5987 0.960859 17.3679 0.585786 16.957C0.210714 16.5461 0 15.9887 0 15.4076Z" fill="black"/>
<path d="M2 26.4331C1.46957 26.4331 0.960859 26.664 0.585786 27.0749C0.210714 27.4858 0 28.0431 0 28.6242C0 29.2053 0.210714 29.7626 0.585786 30.1735C0.960859 30.5844 1.46957 30.8153 2 30.8153H38C38.5304 30.8153 39.0391 30.5844 39.4142 30.1735C39.7893 29.7626 40 29.2053 40 28.6242C40 28.0431 39.7893 27.4858 39.4142 27.0749C39.0391 26.664 38.5304 26.4331 38 26.4331H2Z" fill="black"/>
</svg>
