<svg width="118" height="70" viewBox="0 0 118 70" fill="none" xmlns="http://www.w3.org/2000/svg">
<rect x="0.5" y="0.5" width="117" height="69" stroke="white"/>
<path d="M24.264 22.6C24.9573 22.6 25.5707 22.712 26.104 22.936C26.648 23.1493 27.1067 23.4587 27.48 23.864C27.864 24.2587 28.1573 24.728 28.36 25.272C28.5627 25.8053 28.664 26.3973 28.664 27.048C28.664 27.8587 28.4933 28.5787 28.152 29.208C27.8213 29.8267 27.3627 30.312 26.776 30.664C26.1893 31.016 25.5067 31.192 24.728 31.192C24.3973 31.192 24.0827 31.1493 23.784 31.064C23.496 30.9787 23.2293 30.856 22.984 30.696C22.7493 30.536 22.552 30.3387 22.392 30.104H22.344V34.472H19.864V27.048C19.864 26.1413 20.0453 25.3573 20.408 24.696C20.7707 24.0347 21.2827 23.5227 21.944 23.16C22.6053 22.7867 23.3787 22.6 24.264 22.6ZM24.264 24.744C23.88 24.744 23.544 24.84 23.256 25.032C22.9787 25.2133 22.7653 25.4693 22.616 25.8C22.4667 26.12 22.392 26.4827 22.392 26.888C22.392 27.2933 22.4667 27.656 22.616 27.976C22.7653 28.296 22.9787 28.552 23.256 28.744C23.544 28.9253 23.88 29.016 24.264 29.016C24.648 29.016 24.9787 28.9253 25.256 28.744C25.5333 28.552 25.7467 28.296 25.896 27.976C26.056 27.656 26.136 27.2933 26.136 26.888C26.136 26.4827 26.056 26.12 25.896 25.8C25.7467 25.4693 25.5333 25.2133 25.256 25.032C24.9787 24.84 24.648 24.744 24.264 24.744ZM34.9951 31.192C34.1525 31.192 33.3951 31.0053 32.7231 30.632C32.0511 30.2587 31.5178 29.7467 31.1231 29.096C30.7391 28.4453 30.5471 27.7147 30.5471 26.904C30.5471 26.0827 30.7391 25.352 31.1231 24.712C31.5178 24.0613 32.0511 23.5493 32.7231 23.176C33.3951 22.792 34.1525 22.6 34.9951 22.6C35.8378 22.6 36.5898 22.792 37.2511 23.176C37.9231 23.5493 38.4511 24.0613 38.8351 24.712C39.2298 25.352 39.4271 26.0827 39.4271 26.904C39.4271 27.7147 39.2298 28.4453 38.8351 29.096C38.4511 29.7467 37.9231 30.2587 37.2511 30.632C36.5791 31.0053 35.8271 31.192 34.9951 31.192ZM34.9951 29.032C35.3898 29.032 35.7311 28.936 36.0191 28.744C36.3071 28.552 36.5311 28.296 36.6911 27.976C36.8511 27.656 36.9311 27.2933 36.9311 26.888C36.9311 26.4933 36.8511 26.136 36.6911 25.816C36.5311 25.496 36.3071 25.24 36.0191 25.048C35.7311 24.856 35.3898 24.76 34.9951 24.76C34.6005 24.76 34.2538 24.856 33.9551 25.048C33.6671 25.24 33.4431 25.496 33.2831 25.816C33.1231 26.136 33.0431 26.4933 33.0431 26.888C33.0431 27.2933 33.1231 27.656 33.2831 27.976C33.4431 28.296 33.6671 28.552 33.9551 28.744C34.2538 28.936 34.6005 29.032 34.9951 29.032ZM41.6999 31V19.32H44.1799V31H41.6999ZM49.6604 34.248V31.048C49.063 30.8987 48.551 30.6587 48.1244 30.328C47.6977 29.9867 47.3724 29.576 47.1484 29.096C46.9244 28.6053 46.8124 28.0773 46.8124 27.512V22.792H49.2924V27.432C49.2924 27.72 49.3617 27.9867 49.5004 28.232C49.639 28.4773 49.8257 28.6747 50.0604 28.824C50.3057 28.9627 50.5777 29.032 50.8764 29.032C51.1857 29.032 51.4577 28.9627 51.6924 28.824C51.9377 28.6747 52.1297 28.4773 52.2684 28.232C52.407 27.9867 52.4764 27.72 52.4764 27.432V22.792H54.9564V27.512C54.9564 28.0773 54.8444 28.6 54.6204 29.08C54.407 29.56 54.087 29.9707 53.6604 30.312C53.2444 30.6533 52.7377 30.8933 52.1404 31.032V34.248H49.6604ZM58.8604 34.248V32.12H62.9564C63.1164 32.12 63.2497 32.0667 63.3564 31.96C63.463 31.864 63.5164 31.7413 63.5164 31.592V29.784H63.4684C63.255 30.0293 63.0257 30.2373 62.7804 30.408C62.5457 30.5787 62.279 30.7067 61.9804 30.792C61.6924 30.8773 61.367 30.92 61.0044 30.92C60.279 30.92 59.6284 30.7493 59.0524 30.408C58.487 30.056 58.039 29.5707 57.7084 28.952C57.3884 28.3333 57.2284 27.6293 57.2284 26.84C57.2284 26.0613 57.3937 25.352 57.7244 24.712C58.0657 24.072 58.5617 23.56 59.2124 23.176C59.863 22.792 60.6577 22.6 61.5964 22.6C62.4924 22.6 63.2657 22.7867 63.9164 23.16C64.5777 23.5227 65.0897 24.04 65.4524 24.712C65.815 25.3733 65.9964 26.152 65.9964 27.048V31.848C65.9964 32.584 65.7777 33.1653 65.3404 33.592C64.9137 34.0293 64.3217 34.248 63.5644 34.248H58.8604ZM61.6124 28.84C61.9964 28.84 62.327 28.7547 62.6044 28.584C62.8817 28.4027 63.095 28.1627 63.2444 27.864C63.3937 27.5653 63.4684 27.2347 63.4684 26.872C63.4684 26.488 63.3937 26.136 63.2444 25.816C63.095 25.496 62.8817 25.2453 62.6044 25.064C62.327 24.872 61.9964 24.776 61.6124 24.776C61.239 24.776 60.9084 24.8667 60.6204 25.048C60.343 25.2293 60.1297 25.4747 59.9804 25.784C59.831 26.0933 59.7564 26.44 59.7564 26.824C59.7564 27.1973 59.831 27.5387 59.9804 27.848C60.1297 28.1467 60.343 28.3867 60.6204 28.568C60.9084 28.7493 61.239 28.84 61.6124 28.84ZM72.6483 31.192C71.8056 31.192 71.0483 31.0053 70.3763 30.632C69.7043 30.2587 69.1709 29.7467 68.7763 29.096C68.3923 28.4453 68.2003 27.7147 68.2003 26.904C68.2003 26.0827 68.3923 25.352 68.7763 24.712C69.1709 24.0613 69.7043 23.5493 70.3763 23.176C71.0483 22.792 71.8056 22.6 72.6483 22.6C73.4909 22.6 74.2429 22.792 74.9043 23.176C75.5763 23.5493 76.1043 24.0613 76.4883 24.712C76.8829 25.352 77.0803 26.0827 77.0803 26.904C77.0803 27.7147 76.8829 28.4453 76.4883 29.096C76.1043 29.7467 75.5763 30.2587 74.9043 30.632C74.2323 31.0053 73.4803 31.192 72.6483 31.192ZM72.6483 29.032C73.0429 29.032 73.3843 28.936 73.6723 28.744C73.9603 28.552 74.1843 28.296 74.3443 27.976C74.5043 27.656 74.5843 27.2933 74.5843 26.888C74.5843 26.4933 74.5043 26.136 74.3443 25.816C74.1843 25.496 73.9603 25.24 73.6723 25.048C73.3843 24.856 73.0429 24.76 72.6483 24.76C72.2536 24.76 71.9069 24.856 71.6083 25.048C71.3203 25.24 71.0963 25.496 70.9363 25.816C70.7763 26.136 70.6963 26.4933 70.6963 26.888C70.6963 27.2933 70.7763 27.656 70.9363 27.976C71.0963 28.296 71.3203 28.552 71.6083 28.744C71.9069 28.936 72.2536 29.032 72.6483 29.032ZM79.353 31V26.28C79.353 25.5973 79.5183 24.9787 79.849 24.424C80.1797 23.8693 80.649 23.4267 81.257 23.096C81.8757 22.7653 82.6063 22.6 83.449 22.6C84.3023 22.6 85.0277 22.7653 85.625 23.096C86.233 23.4267 86.697 23.8693 87.017 24.424C87.337 24.9787 87.497 25.5973 87.497 26.28V31H85.017V26.344C85.017 26.056 84.9477 25.7947 84.809 25.56C84.6703 25.3147 84.4783 25.1227 84.233 24.984C83.9983 24.8347 83.7317 24.76 83.433 24.76C83.1237 24.76 82.8463 24.8347 82.601 24.984C82.3663 25.1227 82.1797 25.3147 82.041 25.56C81.9023 25.7947 81.833 26.056 81.833 26.344V31H79.353ZM91.369 31.192C90.9423 31.192 90.5743 31.0427 90.265 30.744C89.9663 30.4347 89.817 30.072 89.817 29.656C89.817 29.2293 89.9663 28.8667 90.265 28.568C90.5743 28.2587 90.9423 28.104 91.369 28.104C91.785 28.104 92.1423 28.2587 92.441 28.568C92.7503 28.8667 92.905 29.2293 92.905 29.656C92.905 29.9333 92.8357 30.1893 92.697 30.424C92.5583 30.6587 92.3717 30.8453 92.137 30.984C91.913 31.1227 91.657 31.192 91.369 31.192Z" fill="white"/>
<path d="M19.944 50V48.032H23.896C24.0027 48.032 24.0987 48.0107 24.184 47.968C24.2693 47.9147 24.3387 47.8453 24.392 47.76C24.4453 47.6747 24.472 47.584 24.472 47.488C24.472 47.3813 24.4453 47.2853 24.392 47.2C24.3387 47.1147 24.2693 47.0507 24.184 47.008C24.0987 46.9547 24.0027 46.928 23.896 46.928H22.456C21.9227 46.928 21.4373 46.8427 21 46.672C20.5733 46.4907 20.232 46.2133 19.976 45.84C19.7307 45.456 19.608 44.96 19.608 44.352C19.608 43.8827 19.72 43.456 19.944 43.072C20.1787 42.688 20.4933 42.3787 20.888 42.144C21.2933 41.9093 21.736 41.792 22.216 41.792H26.168V43.776H22.6C22.4507 43.776 22.3227 43.824 22.216 43.92C22.12 44.016 22.072 44.1333 22.072 44.272C22.072 44.4213 22.12 44.5493 22.216 44.656C22.3227 44.752 22.4507 44.8 22.6 44.8H24.008C24.6053 44.8 25.1173 44.8907 25.544 45.072C25.9813 45.2427 26.3173 45.52 26.552 45.904C26.7973 46.288 26.92 46.784 26.92 47.392C26.92 47.872 26.7973 48.3093 26.552 48.704C26.3173 49.0987 25.9973 49.4133 25.592 49.648C25.1973 49.8827 24.7493 50 24.248 50H19.944ZM31.986 50C31.2287 50 30.6367 49.7867 30.21 49.36C29.7833 48.9227 29.57 48.336 29.57 47.6V39.792H32.066V47.456C32.066 47.584 32.1087 47.696 32.194 47.792C32.29 47.8773 32.402 47.92 32.53 47.92H34.322V50H31.986ZM28.226 43.824V41.792H34.322V43.824H28.226ZM40.3721 50.192C39.6895 50.192 39.0708 50.0853 38.5161 49.872C37.9721 49.6587 37.5135 49.3547 37.1401 48.96C36.7668 48.5547 36.4788 48.08 36.2761 47.536C36.0735 46.992 35.9721 46.4 35.9721 45.76C35.9721 44.928 36.1375 44.2027 36.4681 43.584C36.8095 42.9653 37.2735 42.48 37.8601 42.128C38.4575 41.776 39.1401 41.6 39.9081 41.6C40.2388 41.6 40.5481 41.6427 40.8361 41.728C41.1348 41.8133 41.4015 41.9413 41.6361 42.112C41.8815 42.272 42.0841 42.464 42.2441 42.688H42.2921V38.32H44.7721V45.744C44.7721 46.64 44.5908 47.424 44.2281 48.096C43.8655 48.768 43.3535 49.2853 42.6921 49.648C42.0415 50.0107 41.2681 50.192 40.3721 50.192ZM40.3721 48.048C40.7561 48.048 41.0868 47.9573 41.3641 47.776C41.6521 47.584 41.8708 47.328 42.0201 47.008C42.1695 46.6773 42.2441 46.3093 42.2441 45.904C42.2441 45.4987 42.1695 45.136 42.0201 44.816C41.8708 44.496 41.6521 44.2453 41.3641 44.064C41.0868 43.872 40.7561 43.776 40.3721 43.776C39.9988 43.776 39.6681 43.872 39.3801 44.064C39.0921 44.2453 38.8735 44.496 38.7241 44.816C38.5748 45.136 38.5001 45.4987 38.5001 45.904C38.5001 46.3093 38.5748 46.6773 38.7241 47.008C38.8735 47.328 39.0921 47.584 39.3801 47.776C39.6681 47.9573 39.9988 48.048 40.3721 48.048Z" fill="white"/>
</svg>
