<svg width="30" height="30" viewBox="0 0 30 30" fill="none" xmlns="http://www.w3.org/2000/svg">
<path fill-rule="evenodd" clip-rule="evenodd" d="M9.04413 23.3269C9.63819 23.6404 10.2998 23.804 10.9714 23.8037C13.2086 23.8037 15.0349 22.0242 15.1174 19.8063L15.1256 0H20.0673C20.0677 0.420678 20.1068 0.840425 20.1841 1.25395H16.5658V1.25464H21.5081C21.5074 2.91227 22.1082 4.51385 23.1991 5.76199L23.2004 5.76358C24.3132 6.4905 25.6138 6.877 26.943 6.87575V7.97638C27.4082 8.076 27.8892 8.12906 28.3839 8.12906V13.072C25.9167 13.0749 23.5112 12.3013 21.5081 10.8609V20.9043C21.5081 25.9193 17.4274 30 12.4116 30C11.1626 30.0003 9.92687 29.7426 8.782 29.2431C7.63794 28.7439 6.60931 28.014 5.76033 27.099L5.75847 27.0977C3.41272 25.4508 1.875 22.7271 1.875 19.6502C1.875 14.6344 5.95566 10.5531 10.9714 10.5531C11.3816 10.5551 11.7911 10.5849 12.1973 10.6424V11.8126C12.2258 11.812 12.2542 11.811 12.2827 11.8101C12.3254 11.8086 12.3683 11.8071 12.4116 11.8071C12.8218 11.809 13.2313 11.8389 13.6374 11.8964V16.9418C13.2499 16.8201 12.8397 16.7493 12.4116 16.7493C11.3101 16.7506 10.2541 17.1888 9.47531 17.9677C8.6965 18.7467 8.2585 19.8028 8.25744 20.9042C8.2575 21.7742 8.53244 22.6219 9.04306 23.3264L9.04413 23.3269ZM3.91517 24.1498C4.33734 25.2498 4.96737 26.2476 5.75646 27.0956C4.95131 26.2339 4.32959 25.2319 3.91517 24.1498Z" fill="white"/>
</svg>
